HIERARCHY
ROOT hip
{
  OFFSET 0 0 0
  CHANNELS 6 Xposition Yposition Zposition Zrotation Yrotation Xrotation
  JOINT abdomen
  {
    OFFSET 0 20.6881 -0.73152
    CHANNELS 3 Zrotation Xrotation Yrotation
    JOINT chest
    {
      OFFSET 0 11.7043 -0.48768
      CHANNELS 3 Zrotation Xrotation Yrotation
      JOINT neck
      {
        OFFSET 0 22.1894 -2.19456
        CHANNELS 3 Zrotation Xrotation Yrotation
        JOINT head
        {
          OFFSET -0.24384 7.07133 1.2192
          CHANNELS 3 Zrotation Xrotation Yrotation
          JOINT leftEye
          {
            OFFSET 4.14528 8.04674 8.04672
            CHANNELS 3 Zrotation Xrotation Yrotation
            End Site
            {
              OFFSET 1 0 0
            }
          }
          JOINT rightEye
          {
            OFFSET -3.6576 8.04674 8.04672
            CHANNELS 3 Zrotation Xrotation Yrotation
            End Site
            {
              OFFSET 1 0 0
            }
          }
        }
      }
      JOINT rCollar
      {
        OFFSET -2.68224 19.2634 -4.8768
        CHANNELS 3 Zrotation Xrotation Yrotation
        JOINT rShldr
        {
          OFFSET -8.77824 -1.95073 1.46304
          CHANNELS 3 Zrotation Xrotation Yrotation
          JOINT rForeArm
          {
            OFFSET -28.1742 -1.7115 0.48768
            CHANNELS 3 Zrotation Xrotation Yrotation
            JOINT rHand
            {
              OFFSET -22.5879 0.773209 7.07136
              CHANNELS 3 Zrotation Xrotation Yrotation
              JOINT rThumb1
              {
                OFFSET -1.2192 -0.487915 3.41376
                CHANNELS 3 Zrotation Xrotation Yrotation
                JOINT rThumb2
                {
                  OFFSET -3.37035 -0.52449 3.41376
                  CHANNELS 3 Zrotation Xrotation Yrotation
                  End Site
                  {
                    OFFSET -1.78271 -1.18214 1.43049
                  }
                }
              }
              JOINT rIndex1
              {
                OFFSET -7.75947 0.938293 5.60832
                CHANNELS 3 Zrotation Xrotation Yrotation
                JOINT rIndex2
                {
                  OFFSET -2.54057 -0.884171 1.56538
                  CHANNELS 3 Zrotation Xrotation Yrotation
                  End Site
                  {
                    OFFSET -1.62519 -0.234802 1.16502
                  }
                }
              }
              JOINT rMid1
              {
                OFFSET -8.24714 1.18213 3.41376
                CHANNELS 3 Zrotation Xrotation Yrotation
                JOINT rMid2
                {
                  OFFSET -3.10165 -0.590103 1.0647
                  CHANNELS 3 Zrotation Xrotation Yrotation
                  End Site
                  {
                    OFFSET -2.48547 -0.328903 0.83742
                  }
                }
              }
              JOINT rRing1
              {
                OFFSET -8.82822 0.546677 1.51678
                CHANNELS 3 Zrotation Xrotation Yrotation
                JOINT rRing2
                {
                  OFFSET -2.60934 -0.819778 -0.0198488
                  CHANNELS 3 Zrotation Xrotation Yrotation
                  End Site
                  {
                    OFFSET -2.33842 -0.294052 0.168128
                  }
                }
              }
              JOINT rPinky1
              {
                OFFSET -8.27202 -0.0477905 -0.4584
                CHANNELS 3 Zrotation Xrotation Yrotation
                JOINT rPinky2
                {
                  OFFSET -1.82734 -0.647385 -0.700984
                  CHANNELS 3 Zrotation Xrotation Yrotation
                  End Site
                  {
                    OFFSET -1.69225 -0.51767 -0.607171
                  }
                }
              }
            }
          }
        }
      }
      JOINT lCollar
      {
        OFFSET 2.68224 19.2634 -4.8768
        CHANNELS 3 Zrotation Xrotation Yrotation
        JOINT lShldr
        {
          OFFSET 8.77824 -1.95073 1.46304
          CHANNELS 3 Zrotation Xrotation Yrotation
          JOINT lForeArm
          {
            OFFSET 28.1742 -1.7115 0.48768
            CHANNELS 3 Zrotation Xrotation Yrotation
            JOINT lHand
            {
              OFFSET 22.5879 0.773209 7.07136
              CHANNELS 3 Zrotation Xrotation Yrotation
              JOINT lThumb1
              {
                OFFSET 1.2192 -0.487915 3.41376
                CHANNELS 3 Zrotation Xrotation Yrotation
                JOINT lThumb2
                {
                  OFFSET 3.37035 -0.52449 3.41376
                  CHANNELS 3 Zrotation Xrotation Yrotation
                  End Site
                  {
                    OFFSET 1.78271 -1.18214 1.43049
                  }
                }
              }
              JOINT lIndex1
              {
                OFFSET 7.75947 0.938293 5.60832
                CHANNELS 3 Zrotation Xrotation Yrotation
                JOINT lIndex2
                {
                  OFFSET 2.54057 -0.884171 1.56538
                  CHANNELS 3 Zrotation Xrotation Yrotation
                  End Site
                  {
                    OFFSET 1.62519 -0.234802 1.16502
                  }
                }
              }
              JOINT lMid1
              {
                OFFSET 8.24714 1.18213 3.41376
                CHANNELS 3 Zrotation Xrotation Yrotation
                JOINT lMid2
                {
                  OFFSET 3.10165 -0.590103 1.0647
                  CHANNELS 3 Zrotation Xrotation Yrotation
                  End Site
                  {
                    OFFSET 2.48547 -0.328903 0.83742
                  }
                }
              }
              JOINT lRing1
              {
                OFFSET 8.82822 0.546677 1.51678
                CHANNELS 3 Zrotation Xrotation Yrotation
                JOINT lRing2
                {
                  OFFSET 2.60934 -0.819778 -0.0198488
                  CHANNELS 3 Zrotation Xrotation Yrotation
                  End Site
                  {
                    OFFSET 2.33842 -0.294052 0.168128
                  }
                }
              }
              JOINT lPinky1
              {
                OFFSET 8.27202 -0.0477905 -0.4584
                CHANNELS 3 Zrotation Xrotation Yrotation
                JOINT lPinky2
                {
                  OFFSET 1.82734 -0.647385 -0.700984
                  CHANNELS 3 Zrotation Xrotation Yrotation
                  End Site
                  {
                    OFFSET 1.69225 -0.51767 -0.607171
                  }
                }
              }
            }
          }
        }
      }
    }
  }
  JOINT rButtock
  {
    OFFSET -8.77824 4.35084 1.2192
    CHANNELS 3 Zrotation Xrotation Yrotation
    JOINT rThigh
    {
      OFFSET 0 -1.70687 -2.19456
      CHANNELS 3 Zrotation Xrotation Yrotation
      JOINT rShin
      {
        OFFSET 0 -36.8199 0.73152
        CHANNELS 3 Zrotation Xrotation Yrotation
        JOINT rFoot
        {
          OFFSET 0.73152 -45.1104 -5.12064
          CHANNELS 3 Zrotation Xrotation Yrotation
          End Site
          {
            OFFSET -1.1221 -3.69964 12.103
          }
        }
      }
    }
  }
  JOINT lButtock
  {
    OFFSET 8.77824 4.35084 1.2192
    CHANNELS 3 Zrotation Xrotation Yrotation
    JOINT lThigh
    {
      OFFSET 0 -1.70687 -2.19456
      CHANNELS 3 Zrotation Xrotation Yrotation
      JOINT lShin
      {
        OFFSET 0 -36.8199 0.73152
        CHANNELS 3 Zrotation Xrotation Yrotation
        JOINT lFoot
        {
          OFFSET -0.73152 -45.1104 -5.12064
          CHANNELS 3 Zrotation Xrotation Yrotation
          End Site
          {
            OFFSET 1.1221 -3.69964 12.103
          }
        }
      }
    }
  }
}
MOTION
Frames:	4
Frame Time:	0.00833333
-3.54543 82.3683 46.0313 -7.9355 -3.1906 6.6443 3.81879 -8.00388 5.89893 -3.97291 -9.01434 0.986739 -2.50127 2.62931 -5.41508 13.7903 2.60075 -10.5014 -0.0 0.0 0.0 -0.0 0.0 0.0 9.37513e-14 1.962e-13 -3.09483e-14 37.6226 52.8634 50.6666 -27.8425 -41.2003 86.0788 -0.399193 -17.6834 -2.56802 -2.77114e-10 -6.41438e-10 1.01095e-09 -4.91993e-10 -1.12208e-09 1.74089e-09 -2.77114e-10 -6.41457e-10 1.01093e-09 7.73091 5.47488 0.417314 -2.77115e-10 -6.4144e-10 1.01095e-09 2.90554 0.965183 0.102902 -2.7711e-10 -6.41439e-10 1.01095e-09 10.2786 0.731801 0.0259123 -2.77121e-10 -6.41435e-10 1.01096e-09 2.22167 -0.733487 -0.20892 9.37026e-14 1.96201e-13 -3.13148e-14 -50.2987 61.0397 -31.9213 28.1992 -39.1887 -82.4809 0.93491 -26.3524 3.99211 -3.62835e-10 -2.13218e-09 -1.92136e-09 -5.86443e-10 -3.77905e-09 -3.32637e-09 -3.62838e-10 -2.13218e-09 -1.92135e-09 -7.73091 5.47488 -0.417314 -3.62832e-10 -2.13216e-09 -1.92136e-09 -2.90554 0.965183 -0.102902 -3.62838e-10 -2.13218e-09 -1.92136e-09 -10.2786 0.731801 -0.0259123 -3.62828e-10 -2.13218e-09 -1.92137e-09 -2.22167 -0.733487 0.20892 -2.03217e-16 0.0 -3.88251e-19 3.24537 -1.01612 24.5699 0.035699 -1.5043 0.300784 -4.57082 -6.20317 -20.9684 2.03217e-16 0.0 3.88251e-19 -1.25793 -2.31403 -39.884 0.0140542 11.93 -0.0438279 12.7435 -14.4684 50.2934
-3.5857 82.373 46.0257 -8.0371 -3.0444 6.6399 3.85071 -7.94149 5.79066 -3.86948 -9.00937 0.96572 -2.54942 2.72971 -5.42107 13.7609 2.0453 -10.4355 -0.0 0.0 0.0 -0.0 0.0 0.0 7.69769e-14 2.05366e-13 -3.46786e-14 38.8901 52.8867 49.8652 -27.7663 -41.5186 86.6737 -0.365382 -16.9418 -2.45364 -3.7783e-10 -5.58481e-10 7.26364e-10 -6.61637e-10 -9.72401e-10 1.24689e-09 -3.77831e-10 -5.58507e-10 7.2635e-10 7.73091 5.47488 0.417314 -3.77832e-10 -5.58483e-10 7.26361e-10 2.90554 0.965183 0.102902 -3.77823e-10 -5.58482e-10 7.26363e-10 10.2786 0.731801 0.0259123 -3.77833e-10 -5.58479e-10 7.26371e-10 2.22167 -0.733487 -0.20892 7.6868e-14 2.05373e-13 -3.51336e-14 -50.7219 60.8878 -31.3927 28.1972 -39.2029 -82.506 0.925944 -26.2367 3.97185 -3.01251e-10 -2.15801e-09 -1.84593e-09 -4.82125e-10 -3.8171e-09 -3.1934e-09 -3.01258e-10 -2.15801e-09 -1.84592e-09 -7.73091 5.47488 -0.417314 -3.01249e-10 -2.158e-09 -1.84592e-09 -2.90554 0.965183 -0.102902 -3.01256e-10 -2.15801e-09 -1.84593e-09 -10.2786 0.731801 -0.0259123 -3.01245e-10 -2.158e-09 -1.84594e-09 -2.22167 -0.733487 0.20892 -2.03217e-16 0.0 -3.88251e-19 3.34161 -1.02057 24.4951 0.0357675 -1.48868 0.299714 -4.59197 -6.21876 -21.0227 2.03217e-16 0.0 3.88251e-19 -1.14604 -2.34342 -39.9348 0.0136165 11.9062 -0.0442787 12.6098 -14.3725 50.1987
-3.59867 82.372 46.0114 -8.0776 -2.8591 6.6779 3.85368 -7.89577 5.70148 -3.79426 -8.99565 0.948409 -2.58327 2.8544 -5.42045 13.7704 1.49168 -10.3615 -0.0 0.0 0.0 -0.0 0.0 0.0 5.15669e-14 1.70155e-13 -2.55935e-14 39.7276 53.0132 49.3931 -27.6976 -41.78 87.1752 -0.353253 -16.6662 -2.41136 -3.70124e-10 -3.64689e-10 3.67997e-10 -6.43434e-10 -6.31906e-10 6.28006e-10 -3.70126e-10 -3.64717e-10 3.67984e-10 7.73091 5.47488 0.417314 -3.70126e-10 -3.6469e-10 3.67993e-10 2.90554 0.965183 0.102902 -3.70115e-10 -3.64689e-10 3.67997e-10 10.2786 0.731801 0.0259123 -3.70125e-10 -3.64686e-10 3.68003e-10 2.22167 -0.733487 -0.20892 5.14069e-14 1.70164e-13 -2.60905e-14 -51.2049 60.7553 -30.8008 28.1925 -39.2393 -82.5692 0.920085 -26.1605 3.95852 -1.83467e-10 -1.78192e-09 -1.43071e-09 -2.87755e-10 -3.14331e-09 -2.47282e-09 -1.83477e-10 -1.78193e-09 -1.4307e-09 -7.73091 5.47488 -0.417314 -1.83465e-10 -1.78192e-09 -1.43071e-09 -2.90554 0.965183 -0.102902 -1.83474e-10 -1.78192e-09 -1.43071e-09 -10.2786 0.731801 -0.0259123 -1.83462e-10 -1.78192e-09 -1.43072e-09 -2.22167 -0.733487 0.20892 -2.03217e-16 0.0 -3.88251e-19 3.39197 -1.03379 24.438 0.0357616 -1.47967 0.298701 -4.61049 -6.23316 -21.0741 2.03217e-16 0.0 3.88251e-19 -1.08245 -2.37995 -39.9775 0.013273 11.8906 -0.0454516 12.4997 -14.2946 50.1184
-3.58843 82.3693 45.9975 -8.0423 -2.7 6.7158 3.80675 -7.88187 5.62859 -3.75306 -8.97047 0.933863 -2.59839 2.99867 -5.40843 13.822 0.981456 -10.2776 -0.0 0.0 0.0 -0.0 0.0 0.0 4.27811e-15 5.38171e-14 1.08295e-14 40.02 53.2876 49.3494 -27.6414 -41.9898 87.5746 -0.371983 -17.1218 -2.48085 -1.74067e-10 5.90598e-11 -1.88422e-10 -2.98065e-10 1.05607e-10 -3.2851e-10 -1.7407e-10 5.90361e-11 -1.88434e-10 7.73091 5.47488 0.417314 -1.74069e-10 5.90588e-11 -1.88426e-10 2.90554 0.965183 0.102902 -1.74057e-10 5.906e-11 -1.88422e-10 10.2786 0.731801 0.0259123 -1.74066e-10 5.90621e-11 -1.88418e-10 2.22167 -0.733487 -0.20892 4.06798e-15 5.38238e-14 1.03597e-14 -51.6947 60.6483 -30.1628 28.1847 -39.2934 -82.6659 0.924436 -26.2128 3.96781 5.76339e-11 -6.80727e-10 -3.70972e-10 1.06046e-10 -1.18225e-09 -6.36904e-10 5.762e-11 -6.80726e-10 -3.70959e-10 -7.73091 5.47488 -0.417314 5.76353e-11 -6.8073e-10 -3.70966e-10 -2.90554 0.965183 -0.102902 5.76271e-11 -6.80726e-10 -3.70969e-10 -10.2786 0.731801 -0.0259123 5.76384e-11 -6.80723e-10 -3.7098e-10 -2.22167 -0.733487 0.20892 -2.03217e-16 0.0 -3.88251e-19 3.37098 -1.06205 24.3997 0.0356393 -1.48063 0.297746 -4.62839 -6.25016 -21.1292 2.03217e-16 0.0 3.88251e-19 -1.09302 -2.43217 -40.019 0.0130635 11.8862 -0.0479376 12.4118 -14.2342 50.0528
